<?xml version="1.0" encoding="UTF-8"?>
<svg version="1.1" xmlns="http://www.w3.org/2000/svg" width="834" height="569">
<path d="M0 0 C0.94146448 -0.00205263 1.88292897 -0.00410527 2.85292268 -0.0062201 C6.01955849 -0.01189152 9.18615083 -0.01043267 12.35279083 -0.00901413 C14.64138098 -0.01159769 16.92997067 -0.01461082 19.21855974 -0.01801753 C25.51725234 -0.02609197 31.81593354 -0.02787735 38.1146307 -0.028615 C44.20719806 -0.02979211 50.29976056 -0.03659245 56.39232456 -0.04269341 C72.71524585 -0.05874876 89.03816619 -0.0646563 105.36109396 -0.06944216 C113.08470419 -0.07177871 120.80831368 -0.07538145 128.53192334 -0.07913754 C154.97633913 -0.09197304 181.4207545 -0.1026919 207.86517334 -0.10614014 C209.52503118 -0.10636177 211.18488902 -0.10658355 212.84474686 -0.10680549 C214.50859135 -0.10702613 216.17243585 -0.10724661 217.83628035 -0.10746694 C221.1741813 -0.10790949 224.51208226 -0.1083566 227.84998322 -0.10880661 C228.67758781 -0.108916 229.5051924 -0.10902539 230.35787592 -0.1091381 C257.18693922 -0.11276792 284.01597548 -0.12868515 310.84502842 -0.15199697 C339.21736089 -0.17660463 367.5896779 -0.19031342 395.96202135 -0.19150805 C399.07791933 -0.19167951 402.1938173 -0.19189493 405.30971527 -0.19214249 C406.07692401 -0.19219826 406.84413276 -0.19225402 407.63459025 -0.19231148 C419.97039362 -0.19346116 432.3061692 -0.2044761 444.64196319 -0.21902954 C457.04666034 -0.23341094 469.45132196 -0.23662226 481.85602516 -0.22858956 C488.57362189 -0.22453176 495.29111397 -0.22561281 502.00870514 -0.23964691 C508.16252586 -0.25238552 514.31618317 -0.25118843 520.47000366 -0.2390562 C522.69213294 -0.23709915 524.91427379 -0.24017795 527.13638681 -0.24890056 C554.70102867 -0.35022109 577.19170174 6.43966615 597.57849884 26.01424026 C598.67189422 27.11753063 599.75807284 28.22806038 600.83408928 29.34830666 C602.61579713 31.1296639 604.46527207 32.76637884 606.37967682 34.40355301 C610.32831844 37.83667524 614.05333107 41.43803685 617.73621368 45.15242386 C618.39741211 45.81508255 619.05861053 46.47774124 619.73984528 47.1604805 C621.15955383 48.58396378 622.57810725 50.00859993 623.99559402 51.43429565 C626.23750963 53.68907115 628.48261894 55.94062318 630.72855377 58.19139481 C635.48604967 62.96025926 640.2395782 67.73306614 644.99256134 72.50642776 C650.52287741 78.06034089 656.05480551 83.61262843 661.59093857 89.16074371 C663.80550374 91.38180273 666.01704424 93.60584404 668.22849274 95.83000565 C669.57727359 97.18241663 670.9261937 98.53468876 672.27527618 99.88679886 C672.89136749 100.50805649 673.5074588 101.12931412 674.14221954 101.76939774 C677.09512497 104.82429599 677.09512497 104.82429599 680.61756134 107.13142776 C680.61756134 107.79142776 680.61756134 108.45142776 680.61756134 109.13142776 C681.18990509 109.36474808 681.76224884 109.59806839 682.35193634 109.83845901 C685.15692348 111.43923616 686.77567861 113.36209427 688.86756134 115.81892776 C691.422573 118.81687028 694.02387543 121.53423821 697.01599884 124.08455276 C702.96281937 129.20534881 708.49804843 134.75139914 714.06189728 140.28059769 C715.34094215 141.54815898 716.62443038 142.81125353 717.91248322 144.06966019 C736.76298893 162.48845652 751.78243543 183.96733816 752.16133773 211.26493752 C752.17105723 213.48031275 752.16135123 215.69511532 752.15100861 217.9104805 C752.15808736 219.53203991 752.16684047 221.15359273 752.17711639 222.77513504 C752.19940066 227.13273073 752.19672046 231.48995964 752.18779492 235.84759021 C752.18264332 239.50526235 752.19001107 243.16286805 752.197267 246.82053334 C752.2141993 255.45848631 752.21076765 264.09626235 752.19397736 272.73421097 C752.17705944 281.60315293 752.19290122 290.47160253 752.22520024 299.34049076 C752.25201009 306.9962183 752.25914165 314.65179365 752.25068516 322.30756336 C752.24578942 326.86198908 752.24778772 331.41611889 752.26847267 335.97050667 C752.28701049 340.25627161 752.28065385 344.54133579 752.25627327 348.82706451 C752.25132229 350.38614629 752.25460353 351.9452832 752.26742172 353.50432014 C752.37201691 367.33597543 749.51269376 379.77735476 742.80506134 392.00642776 C742.20049103 393.13822464 741.59592072 394.27002151 740.97303009 395.43611526 C734.64365683 405.86537705 725.73848364 414.30867062 717.17176056 422.86775589 C715.82345948 424.22205271 714.47556534 425.57675476 713.12804413 426.93182755 C709.48996882 430.58746288 705.84553256 434.23669023 702.19930792 437.88419533 C699.91521223 440.16971877 697.6325492 442.45666316 695.35038376 444.74411392 C687.37059643 452.74236793 679.38569642 460.73547603 671.39588165 468.72371292 C663.97730365 476.14109021 656.56994757 483.56954377 649.16778362 491.00329828 C642.78738137 497.40994704 636.39919451 503.80876386 630.00501835 510.2016654 C626.19717097 514.00900565 622.39241454 517.81930724 618.59549332 521.63754654 C615.02073033 525.23183368 611.43627423 528.81617629 607.84452248 532.39348412 C606.53750853 533.69842642 605.23381453 535.00670502 603.93395424 536.31877327 C593.64544423 546.69752729 582.74060685 556.22303526 569.43006134 562.56892776 C568.82226837 562.88023636 568.2144754 563.19154495 567.58826447 563.51228714 C558.89052225 567.78470446 550.06156585 569.58525352 540.41965103 569.51453781 C539.45076806 569.51949733 538.4818851 569.52445684 537.48364204 569.52956665 C534.25371158 569.54246698 531.02419831 569.53415563 527.79425812 569.52583694 C525.44844052 569.53072847 523.10262534 569.53691948 520.75681424 569.54429483 C514.99673182 569.55896818 509.2367658 569.55973139 503.47666979 569.55452236 C496.5729753 569.54904801 489.66933782 569.56097329 482.76565607 569.57329301 C468.45338851 569.59817772 454.14115832 569.60272324 439.82887259 569.60082704 C428.77471911 569.59945293 417.72057856 569.60327669 406.66642761 569.61075211 C405.07717578 569.61180245 403.48792395 569.61285007 401.89867212 569.61389497 C401.10974831 569.61441431 400.32082451 569.61493366 399.50799392 569.61546874 C398.32241819 569.61624895 398.32241819 569.61624895 397.11289144 569.61704493 C396.32116411 569.61756892 395.52943678 569.61809291 394.71371771 569.61863278 C372.45119045 569.63321239 350.18866794 569.64150022 327.92613602 569.63688278 C327.08719298 569.63671083 326.24824995 569.63653887 325.38388439 569.63636171 C321.13198638 569.63547284 316.88008837 569.63452803 312.62819037 569.6335637 C311.7837814 569.63337266 310.93937243 569.63318163 310.0693753 569.63298481 C308.36177572 569.63259772 306.65417615 569.63220739 304.94657657 569.63181383 C278.38032627 569.62584471 251.81416309 569.64127969 225.24793243 569.67341995 C195.38569979 569.70951732 165.52352239 569.72882681 135.66126657 569.72388124 C132.47549709 569.72341128 129.28972762 569.72300103 126.10395813 569.72262955 C125.31956836 569.72252716 124.53517858 569.72242477 123.72701942 569.72231929 C111.89924578 569.72112574 100.07153195 569.73307485 88.24377441 569.75177383 C74.78741829 569.77303753 61.33118739 569.77683349 47.87482563 569.75747424 C41.01120531 569.74807356 34.14781226 569.74650808 27.28421211 569.7678299 C20.99597221 569.78655191 14.70818563 569.78202171 8.41996291 569.75928408 C6.15018723 569.75510154 3.88037671 569.75928652 1.61063787 569.77288002 C-22.51321712 569.90747104 -40.18072415 563.39678967 -58.38243866 547.13142776 C-59.01536835 546.59259964 -59.64829803 546.05377151 -60.30040741 545.49861526 C-69.21826928 537.37662665 -75.60367158 525.45393788 -79.38243866 514.13142776 C-79.62891789 513.4397026 -79.87539712 512.74797743 -80.12934542 512.0352909 C-82.93916056 503.21651548 -82.80784736 494.54365008 -82.77684784 485.40201187 C-82.78174243 483.60962931 -82.78793486 481.81724991 -82.79530573 480.02487582 C-82.81165649 475.12088606 -82.80939723 470.21705758 -82.80393076 465.31305015 C-82.80125453 460.01566288 -82.81580356 454.71831802 -82.82802582 449.42094803 C-82.84905759 439.0503986 -82.85362193 428.67990511 -82.85183793 418.30933688 C-82.85052907 409.87675818 -82.85434081 401.4441969 -82.861763 393.01162148 C-82.86386226 390.58036238 -82.86595986 388.14910329 -82.86805582 385.71784419 C-82.86909935 384.50763595 -82.87014288 383.29742771 -82.87121803 382.05054649 C-82.89011162 359.17296961 -82.88907302 336.29542481 -82.8822487 313.41784336 C-82.87667502 292.50685498 -82.89749281 271.59598917 -82.93060917 250.68502942 C-82.96437548 229.19627756 -82.97951075 207.70758437 -82.97489214 186.21880549 C-82.97265029 174.16153075 -82.977849 162.10436927 -83.00278473 150.04711723 C-83.02383591 139.78100395 -83.02735201 129.51506603 -83.00848514 119.24894545 C-82.99935057 114.01550576 -82.99811431 108.78239271 -83.01884079 103.54897881 C-83.03763969 98.74899553 -83.03294797 93.94960439 -83.01029497 89.14964303 C-83.00613161 87.4222414 -83.01023215 85.69479358 -83.02389091 83.96744094 C-83.13006919 69.546303 -80.5244945 56.87173275 -73.44493866 44.13142776 C-72.9361618 43.21381668 -72.9361618 43.21381668 -72.41710663 42.277668 C-67.05797928 32.79526285 -67.05797928 32.79526285 -63.38243866 29.13142776 C-62.72243866 29.13142776 -62.06243866 29.13142776 -61.38243866 29.13142776 C-61.1336496 28.55006058 -60.88486053 27.96869339 -60.62853241 27.36970901 C-53.90069816 15.28491583 -35.82306059 7.23007379 -23.32384491 3.12752151 C-15.47736036 0.92369207 -8.12808563 -0.01648883 0 0 Z " fill="#FCFCFD" transform="translate(82.38243865966797,-0.13142776489257813)"/>
<path d="M0 0 C0.94146448 -0.00205263 1.88292897 -0.00410527 2.85292268 -0.0062201 C6.01955849 -0.01189152 9.18615083 -0.01043267 12.35279083 -0.00901413 C14.64138098 -0.01159769 16.92997067 -0.01461082 19.21855974 -0.01801753 C25.51725234 -0.02609197 31.81593354 -0.02787735 38.1146307 -0.028615 C44.20719806 -0.02979211 50.29976056 -0.03659245 56.39232456 -0.04269341 C72.71524585 -0.05874876 89.03816619 -0.0646563 105.36109396 -0.06944216 C113.08470419 -0.07177871 120.80831368 -0.07538145 128.53192334 -0.07913754 C154.97633913 -0.09197304 181.4207545 -0.1026919 207.86517334 -0.10614014 C209.52503118 -0.10636177 211.18488902 -0.10658355 212.84474686 -0.10680549 C214.50859135 -0.10702613 216.17243585 -0.10724661 217.83628035 -0.10746694 C221.1741813 -0.10790949 224.51208226 -0.1083566 227.84998322 -0.10880661 C228.67758781 -0.108916 229.5051924 -0.10902539 230.35787592 -0.1091381 C257.18693922 -0.11276792 284.01597548 -0.12868515 310.84502842 -0.15199697 C339.21736089 -0.17660463 367.5896779 -0.19031342 395.96202135 -0.19150805 C399.07791933 -0.19167951 402.1938173 -0.19189493 405.30971527 -0.19214249 C406.07692401 -0.19219826 406.84413276 -0.19225402 407.63459025 -0.19231148 C419.97039362 -0.19346116 432.3061692 -0.2044761 444.64196319 -0.21902954 C457.04666034 -0.23341094 469.45132196 -0.23662226 481.85602516 -0.22858956 C488.57362189 -0.22453176 495.29111397 -0.22561281 502.00870514 -0.23964691 C508.16252586 -0.25238552 514.31618317 -0.25118843 520.47000366 -0.2390562 C522.69213294 -0.23709915 524.91427379 -0.24017795 527.13638681 -0.24890056 C554.70102867 -0.35022109 577.19170174 6.43966615 597.57849884 26.01424026 C598.67189422 27.11753063 599.75807284 28.22806038 600.83408928 29.34830666 C602.61579713 31.1296639 604.46527207 32.76637884 606.37967682 34.40355301 C610.32831844 37.83667524 614.05333107 41.43803685 617.73621368 45.15242386 C618.39741211 45.81508255 619.05861053 46.47774124 619.73984528 47.1604805 C621.15955383 48.58396378 622.57810725 50.00859993 623.99559402 51.43429565 C626.23750963 53.68907115 628.48261894 55.94062318 630.72855377 58.19139481 C635.48604967 62.96025926 640.2395782 67.73306614 644.99256134 72.50642776 C650.52287741 78.06034089 656.05480551 83.61262843 661.59093857 89.16074371 C663.80550374 91.38180273 666.01704424 93.60584404 668.22849274 95.83000565 C669.57727359 97.18241663 670.9261937 98.53468876 672.27527618 99.88679886 C672.89136749 100.50805649 673.5074588 101.12931412 674.14221954 101.76939774 C677.09512497 104.82429599 677.09512497 104.82429599 680.61756134 107.13142776 C680.61756134 107.79142776 680.61756134 108.45142776 680.61756134 109.13142776 C681.18990509 109.36474808 681.76224884 109.59806839 682.35193634 109.83845901 C685.15692348 111.43923616 686.77567861 113.36209427 688.86756134 115.81892776 C691.422573 118.81687028 694.02387543 121.53423821 697.01599884 124.08455276 C702.96281937 129.20534881 708.49804843 134.75139914 714.06189728 140.28059769 C715.34094215 141.54815898 716.62443038 142.81125353 717.91248322 144.06966019 C736.76298893 162.48845652 751.78243543 183.96733816 752.16133773 211.26493752 C752.17105723 213.48031275 752.16135123 215.69511532 752.15100861 217.9104805 C752.15808736 219.53203991 752.16684047 221.15359273 752.17711639 222.77513504 C752.19940066 227.13273073 752.19672046 231.48995964 752.18779492 235.84759021 C752.18264332 239.50526235 752.19001107 243.16286805 752.197267 246.82053334 C752.2141993 255.45848631 752.21076765 264.09626235 752.19397736 272.73421097 C752.17705944 281.60315293 752.19290122 290.47160253 752.22520024 299.34049076 C752.25201009 306.9962183 752.25914165 314.65179365 752.25068516 322.30756336 C752.24578942 326.86198908 752.24778772 331.41611889 752.26847267 335.97050667 C752.28701049 340.25627161 752.28065385 344.54133579 752.25627327 348.82706451 C752.25132229 350.38614629 752.25460353 351.9452832 752.26742172 353.50432014 C752.37201691 367.33597543 749.51269376 379.77735476 742.80506134 392.00642776 C742.20049103 393.13822464 741.59592072 394.27002151 740.97303009 395.43611526 C734.64365683 405.86537705 725.73848364 414.30867062 717.17176056 422.86775589 C715.82345948 424.22205271 714.47556534 425.57675476 713.12804413 426.93182755 C709.48996882 430.58746288 705.84553256 434.23669023 702.19930792 437.88419533 C699.91521223 440.16971877 697.6325492 442.45666316 695.35038376 444.74411392 C687.37059643 452.74236793 679.38569642 460.73547603 671.39588165 468.72371292 C663.97730365 476.14109021 656.56994757 483.56954377 649.16778362 491.00329828 C642.78738137 497.40994704 636.39919451 503.80876386 630.00501835 510.2016654 C626.19717097 514.00900565 622.39241454 517.81930724 618.59549332 521.63754654 C615.02073033 525.23183368 611.43627423 528.81617629 607.84452248 532.39348412 C606.53750853 533.69842642 605.23381453 535.00670502 603.93395424 536.31877327 C593.64544423 546.69752729 582.74060685 556.22303526 569.43006134 562.56892776 C568.82226837 562.88023636 568.2144754 563.19154495 567.58826447 563.51228714 C558.89052225 567.78470446 550.06156585 569.58525352 540.41965103 569.51453781 C539.45076806 569.51949733 538.4818851 569.52445684 537.48364204 569.52956665 C534.25371158 569.54246698 531.02419831 569.53415563 527.79425812 569.52583694 C525.44844052 569.53072847 523.10262534 569.53691948 520.75681424 569.54429483 C514.99673182 569.55896818 509.2367658 569.55973139 503.47666979 569.55452236 C496.5729753 569.54904801 489.66933782 569.56097329 482.76565607 569.57329301 C468.45338851 569.59817772 454.14115832 569.60272324 439.82887259 569.60082704 C428.77471911 569.59945293 417.72057856 569.60327669 406.66642761 569.61075211 C405.07717578 569.61180245 403.48792395 569.61285007 401.89867212 569.61389497 C401.10974831 569.61441431 400.32082451 569.61493366 399.50799392 569.61546874 C398.32241819 569.61624895 398.32241819 569.61624895 397.11289144 569.61704493 C396.32116411 569.61756892 395.52943678 569.61809291 394.71371771 569.61863278 C372.45119045 569.63321239 350.18866794 569.64150022 327.92613602 569.63688278 C327.08719298 569.63671083 326.24824995 569.63653887 325.38388439 569.63636171 C321.13198638 569.63547284 316.88008837 569.63452803 312.62819037 569.6335637 C311.7837814 569.63337266 310.93937243 569.63318163 310.0693753 569.63298481 C308.36177572 569.63259772 306.65417615 569.63220739 304.94657657 569.63181383 C278.38032627 569.62584471 251.81416309 569.64127969 225.24793243 569.67341995 C195.38569979 569.70951732 165.52352239 569.72882681 135.66126657 569.72388124 C132.47549709 569.72341128 129.28972762 569.72300103 126.10395813 569.72262955 C125.31956836 569.72252716 124.53517858 569.72242477 123.72701942 569.72231929 C111.89924578 569.72112574 100.07153195 569.73307485 88.24377441 569.75177383 C74.78741829 569.77303753 61.33118739 569.77683349 47.87482563 569.75747424 C41.01120531 569.74807356 34.14781226 569.74650808 27.28421211 569.7678299 C20.99597221 569.78655191 14.70818563 569.78202171 8.41996291 569.75928408 C6.15018723 569.75510154 3.88037671 569.75928652 1.61063787 569.77288002 C-22.51321712 569.90747104 -40.18072415 563.39678967 -58.38243866 547.13142776 C-59.01536835 546.59259964 -59.64829803 546.05377151 -60.30040741 545.49861526 C-69.21826928 537.37662665 -75.60367158 525.45393788 -79.38243866 514.13142776 C-79.62891789 513.4397026 -79.87539712 512.74797743 -80.12934542 512.0352909 C-82.93916056 503.21651548 -82.80784736 494.54365008 -82.77684784 485.40201187 C-82.78174243 483.60962931 -82.78793486 481.81724991 -82.79530573 480.02487582 C-82.81165649 475.12088606 -82.80939723 470.21705758 -82.80393076 465.31305015 C-82.80125453 460.01566288 -82.81580356 454.71831802 -82.82802582 449.42094803 C-82.84905759 439.0503986 -82.85362193 428.67990511 -82.85183793 418.30933688 C-82.85052907 409.87675818 -82.85434081 401.4441969 -82.861763 393.01162148 C-82.86386226 390.58036238 -82.86595986 388.14910329 -82.86805582 385.71784419 C-82.86909935 384.50763595 -82.87014288 383.29742771 -82.87121803 382.05054649 C-82.89011162 359.17296961 -82.88907302 336.29542481 -82.8822487 313.41784336 C-82.87667502 292.50685498 -82.89749281 271.59598917 -82.93060917 250.68502942 C-82.96437548 229.19627756 -82.97951075 207.70758437 -82.97489214 186.21880549 C-82.97265029 174.16153075 -82.977849 162.10436927 -83.00278473 150.04711723 C-83.02383591 139.78100395 -83.02735201 129.51506603 -83.00848514 119.24894545 C-82.99935057 114.01550576 -82.99811431 108.78239271 -83.01884079 103.54897881 C-83.03763969 98.74899553 -83.03294797 93.94960439 -83.01029497 89.14964303 C-83.00613161 87.4222414 -83.01023215 85.69479358 -83.02389091 83.96744094 C-83.13006919 69.546303 -80.5244945 56.87173275 -73.44493866 44.13142776 C-72.9361618 43.21381668 -72.9361618 43.21381668 -72.41710663 42.277668 C-67.05797928 32.79526285 -67.05797928 32.79526285 -63.38243866 29.13142776 C-62.72243866 29.13142776 -62.06243866 29.13142776 -61.38243866 29.13142776 C-61.1336496 28.55006058 -60.88486053 27.96869339 -60.62853241 27.36970901 C-53.90069816 15.28491583 -35.82306059 7.23007379 -23.32384491 3.12752151 C-15.47736036 0.92369207 -8.12808563 -0.01648883 0 0 Z M-25.38243866 62.13142776 C-30.18647489 69.58633985 -32.50508927 75.24200291 -32.51386642 84.09530544 C-32.51591906 84.7995879 -32.51797169 85.50387037 -32.52008653 86.22949472 C-32.52576354 88.60129807 -32.52429841 90.97304348 -32.52288055 93.34485245 C-32.52546379 95.05780807 -32.52847683 96.77076308 -32.53188396 98.48371726 C-32.53996213 103.20036206 -32.54174398 107.91699165 -32.54248142 112.63364255 C-32.54433056 117.71695895 -32.55187721 122.80026743 -32.55861664 127.88357925 C-32.5722064 139.00342568 -32.57822571 150.12326851 -32.5826273 161.24312186 C-32.58538869 168.18481698 -32.58962586 175.1265107 -32.59413147 182.06820488 C-32.60632509 201.283015 -32.61662415 220.497824 -32.62000656 239.7126379 C-32.62022613 240.94275964 -32.62044569 242.17288138 -32.62067191 243.44027953 C-32.62089019 244.67336636 -32.62110847 245.90645319 -32.62133336 247.17690629 C-32.62177683 249.6756628 -32.62222339 252.1744193 -32.62267303 254.67317581 C-32.62289446 255.91264876 -32.62311589 257.1521217 -32.62334403 258.42915443 C-32.62729228 278.51433451 -32.64474671 298.5994783 -32.66803256 318.68464436 C-32.69173998 339.29963213 -32.70420814 359.91460168 -32.70537448 380.5296033 C-32.70629159 392.10662709 -32.71205309 403.68360362 -32.73019409 415.2606144 C-32.74558686 425.11862741 -32.7507204 434.97657856 -32.74245599 444.83460131 C-32.73854655 449.86452754 -32.73949348 454.89432917 -32.75351334 459.92424011 C-32.76623448 464.53032703 -32.7650704 469.13619547 -32.75292262 473.74228201 C-32.75096253 475.40718578 -32.75405847 477.07210493 -32.76276699 478.73698708 C-32.82706882 491.86284455 -31.46300985 501.65358804 -22.19493866 511.75642776 C-15.26473431 518.52198363 -6.85945395 520.28166749 2.5170908 520.26564884 C3.44278514 520.26800107 4.36847949 520.2703533 5.32222518 520.27277681 C8.45323932 520.27948345 11.58421212 520.27900809 14.71523285 520.27859879 C16.97108633 520.28189638 19.22693923 520.28562172 21.48279136 520.28974026 C27.70477051 520.29978035 33.92674001 520.30348029 40.14872611 520.30612957 C46.16280373 520.30962687 52.17687402 520.31777361 58.19094703 520.32567351 C74.30895497 520.34652883 90.42696474 520.35698965 106.54498302 520.36580312 C114.16889979 520.37000832 121.79281576 520.3752305 129.41673186 520.38048765 C155.51009158 520.39837932 181.60345151 520.41337545 207.69681644 520.42080784 C209.33533158 520.4212826 210.97384671 520.42175849 212.61236184 520.4222355 C213.42492581 520.42247188 214.23748978 520.42270825 215.0746769 520.42295179 C219.19159216 520.424153 223.30850742 520.42536845 227.42542267 520.42659378 C228.24244021 520.42683393 229.05945776 520.42707408 229.90123342 520.42732151 C256.39029948 520.43521426 282.87932077 520.45864483 309.36836729 520.49114972 C337.3684558 520.52544614 365.3685181 520.54515884 393.36862797 520.54845208 C396.44237356 520.54886962 399.51611915 520.54934919 402.58986473 520.54987526 C403.72514383 520.55006005 403.72514383 520.55006005 404.88335786 520.55024857 C417.06484507 520.55258091 429.24628029 520.56824284 441.42774896 520.58871711 C453.67255983 520.60897129 465.91730823 520.61445436 478.16213275 520.60494647 C484.79618913 520.60018897 491.43011237 520.60235091 498.06415558 520.62170792 C504.13712699 520.63927498 510.20980557 520.63839415 516.28277981 520.62281062 C518.48003068 520.62042474 520.67730148 520.62480861 522.8745218 520.63663927 C525.86241807 520.65173095 528.84927313 520.64210403 531.8371439 520.62641239 C533.11522433 520.6417457 533.11522433 520.6417457 534.41912457 520.65738878 C551.60054236 520.46060269 562.46525807 507.58353969 573.75305939 496.27058792 C575.05457661 494.97342507 576.35650878 493.67667845 577.65882111 492.38031387 C581.17367101 488.87878433 584.68216185 485.3709498 588.18908668 481.861485 C591.12466165 478.924836 594.06321751 475.99117864 597.00171882 473.05745828 C603.93598983 466.13425747 610.86495009 459.20577303 617.79065704 452.27400589 C624.92165158 445.13696741 632.06178467 438.00916599 639.20643395 430.88579905 C645.35561249 424.75426104 651.49894168 418.61690498 657.63768035 412.47491491 C661.29751413 408.81327272 664.95951096 405.15386395 668.62721062 401.50009918 C672.07559653 398.06432756 675.51659153 394.62131834 678.9521637 391.17273521 C680.20966797 389.91287381 681.46970369 388.65553293 682.73252296 387.40099907 C692.65676728 377.53715862 703.05563529 367.17998665 703.74619579 352.37330723 C703.74787164 351.36587058 703.74954748 350.35843393 703.75127411 349.3204689 C703.75553909 348.15847977 703.75980408 346.99649063 703.7641983 345.7992897 C703.76374512 344.53322388 703.76329193 343.26715805 703.76282501 341.96272659 C703.765819 340.60877261 703.76922208 339.25481948 703.77300262 337.90086746 C703.78182479 334.22911702 703.78418005 330.5573899 703.78481841 326.88562989 C703.78553019 324.58812675 703.787667 322.2906295 703.79031563 319.99312782 C703.79956479 311.96752803 703.80365126 303.94194482 703.80286407 295.91633987 C703.80226415 288.45296307 703.81280033 280.98965873 703.82860774 273.52630025 C703.84171852 267.10571067 703.84704645 260.68514466 703.84640867 254.2645418 C703.84615462 250.43571371 703.84895385 246.60694998 703.85958672 242.7781353 C703.86932683 239.17232948 703.86930673 235.56664876 703.86207008 231.96083832 C703.86053953 230.02095554 703.86883049 228.08107261 703.87751007 226.14120865 C703.77961621 198.69285265 686.7790993 185.13317873 668.53162384 166.94783401 C666.90000495 165.31808533 665.2686105 163.68811192 663.63742828 162.05792618 C659.37720762 157.80149138 655.11399328 153.54806778 650.85010529 149.29530716 C646.50644051 144.96191134 642.16563658 140.62565185 637.82459259 136.28963089 C630.82283814 129.29662918 623.81936081 122.30535866 616.81360626 115.31636429 C616.1999823 114.70418549 615.58635834 114.09200668 614.95413971 113.46127701 C614.3789069 112.88797055 613.80367409 112.3146641 613.21100998 111.72398472 C611.79052944 110.30429907 610.37751375 108.87715333 608.96555328 107.44899368 C606.66205261 105.1753425 604.29076411 103.02078581 601.86365509 100.88020706 C596.94543148 96.47770816 592.29127145 91.87131111 587.68006134 87.15095901 C586.02686229 85.47538787 584.37320263 83.80027108 582.71912384 82.12556839 C580.16064255 79.52998273 577.60540149 76.93148607 575.05799103 74.32503128 C572.56628483 71.77852286 570.06178537 69.24517444 567.55506134 66.71345901 C566.43273102 65.5554554 566.43273102 65.5554554 565.28772736 64.37405777 C556.55260401 55.59656671 547.42167865 49.94470673 534.85212559 49.8655566 C533.57115823 49.8725801 533.57115823 49.8725801 532.26431274 49.87974548 C531.33816935 49.8768386 530.41202596 49.87393172 529.45781761 49.87093675 C526.34933766 49.86362839 523.24105456 49.87058411 520.13257599 49.87746048 C517.88350622 49.87515639 515.63443721 49.87198021 513.38536978 49.86800599 C507.20082138 49.85964236 501.01633456 49.86379041 494.83178592 49.86997843 C488.84836958 49.87403167 482.86496358 49.86871208 476.88154961 49.8636837 C463.88770567 49.85315038 450.89388139 49.85406573 437.90003558 49.85984152 C426.5289538 49.86487122 415.15787923 49.86618669 403.78679657 49.86379623 C403.03273463 49.86364346 402.27867268 49.86349069 401.50176037 49.86333329 C398.44083197 49.86271062 395.37990358 49.86207383 392.31897519 49.86141377 C363.6009468 49.85529479 334.88293095 49.86084425 306.1649045 49.87160756 C280.64667533 49.88109888 255.12846612 49.88024963 229.61023712 49.87068558 C200.94497131 49.85997797 172.27971656 49.85572873 143.61444902 49.8619101 C140.55907472 49.86255155 137.50370042 49.86317723 134.44832611 49.86379623 C133.69600656 49.86395439 132.94368701 49.86411254 132.1685699 49.86427549 C120.80420785 49.86655112 109.4398538 49.86388861 98.07549286 49.85883713 C85.15463417 49.85312244 72.23379823 49.8545401 59.31294239 49.86539862 C52.71774819 49.87075819 46.1225862 49.8726992 39.52739143 49.86610031 C33.49366371 49.86015441 27.46001426 49.86339353 21.42629367 49.87405542 C19.23998715 49.87629521 17.05367406 49.87514023 14.86737174 49.87030384 C11.90175636 49.86424518 8.93641109 49.87043737 5.97080994 49.87974548 C5.1168317 49.87506315 4.26285346 49.87038082 3.3829971 49.8655566 C-7.42458585 49.93361165 -18.12420098 53.83872163 -25.38243866 62.13142776 Z " fill="#384047" transform="translate(82.38243865966797,-0.13142776489257813)"/>
<path d="M0 0 C0 14.19 0 28.38 0 43 C-5.61 43.99 -11.22 44.98 -17 46 C-26.22859708 50.12705956 -26.22859708 50.12705956 -31.93740845 58.01631165 C-34.28438543 65.21054122 -34.39970497 72.25136858 -34.34955978 79.74773216 C-34.33561169 82.03387005 -34.34238159 84.31915978 -34.35440063 86.6053009 C-34.38506062 93.09801148 -34.38062616 99.59051445 -34.36035156 106.08325195 C-34.34930902 110.07617865 -34.36288457 114.06846573 -34.39024734 118.06130409 C-34.39561361 119.56446258 -34.39181855 121.06768809 -34.37784958 122.57079124 C-34.20682933 141.19278592 -40.002246 154.96195247 -52.703125 168.70703125 C-57.84938503 173.84453914 -63.63484778 177.55220922 -70 181 C-66.90918706 183.67870455 -63.73432414 185.74978792 -60.1875 187.75 C-47.82192964 195.13270349 -40.26962669 206.93991675 -35.86071777 220.44662476 C-34.26789546 227.02241016 -34.43720544 233.6648837 -34.4609375 240.38671875 C-34.45100332 241.93985868 -34.43905189 243.49298686 -34.42520142 245.0460968 C-34.39310086 249.10154299 -34.38247089 253.15671959 -34.37835693 257.21228027 C-34.36954308 263.71113478 -34.3337799 270.2097709 -34.2861824 276.7084446 C-34.2737233 278.96006896 -34.27434342 281.2114071 -34.27645874 283.46305847 C-34.3623385 298.06583763 -34.3623385 298.06583763 -27.1640625 310.2109375 C-19.07192202 316.90082981 -10.42069578 317.51132917 0 319 C0 333.19 0 347.38 0 362 C-23.20088028 362 -23.20088028 362 -30 360.3125 C-30.77778809 360.13315918 -31.55557617 359.95381836 -32.35693359 359.76904297 C-42.59622838 357.29045823 -51.55955715 353.33438226 -60 347 C-61.22783203 346.08541016 -61.22783203 346.08541016 -62.48046875 345.15234375 C-74.05631545 335.26351967 -81.33591996 319.7482895 -84 305 C-84.4198111 299.46171248 -84.44103898 293.94617126 -84.44140625 288.39453125 C-84.4532112 286.81897273 -84.46658289 285.24342525 -84.48143005 283.66789246 C-84.51731941 279.55332258 -84.53772888 275.4388507 -84.55297852 271.32415771 C-84.57797435 264.73054521 -84.61784669 258.13714904 -84.67487907 251.54373741 C-84.69103934 249.25890711 -84.6949689 246.97428737 -84.69789124 244.68940735 C-84.76231324 231.88817582 -86.19464158 220.37247162 -95.25 210.5625 C-104.4252949 205.34926426 -112.01912742 204.46411634 -123 203 C-123 188.81 -123 174.62 -123 160 C-117.72 159.34 -112.44 158.68 -107 158 C-98.39525322 154.92687615 -93.05900998 151.83185451 -88.7890625 143.69140625 C-85.94548608 137.55049121 -84.87683171 132.69754069 -84.84228516 125.88330078 C-84.83720444 125.17368698 -84.83212372 124.46407318 -84.82688904 123.73295593 C-84.81620479 122.19374949 -84.80757701 120.6545277 -84.80076981 119.11529922 C-84.78892211 116.66629381 -84.76944904 114.21746013 -84.74765015 111.76852417 C-84.68627046 104.80570343 -84.63226899 97.84289721 -84.59863281 90.87988281 C-84.57748178 86.61515185 -84.5420099 82.35073005 -84.49787521 78.08617783 C-84.48386457 76.47337401 -84.47502718 74.86051545 -84.47182083 73.24765396 C-84.42398017 51.46509837 -79.41065772 34.37482266 -64.20703125 18.078125 C-47.1649191 1.65374399 -22.2358729 0 0 0 Z " fill="#1985F2" transform="translate(266,99)"/>
<path d="M0 0 C24.51601235 0 47.29682288 3.09120047 65.75390625 20.6328125 C80.67176435 36.35493773 84.52371986 56.68370645 84.28842926 77.59787369 C84.26484001 79.89681567 84.26439407 82.19481734 84.26971436 84.49386597 C84.28219597 91.01650576 84.26548611 97.53861581 84.20947266 104.06103516 C84.17650209 108.08693831 84.17822472 112.11167214 84.20049286 116.13763046 C84.20221791 117.65003436 84.19130709 119.16251734 84.16638947 120.67471695 C83.96144387 133.40000569 86.8836813 144.51635018 96 154 C104.69292151 158.06490224 104.69292151 158.06490224 122 160 C122 174.19 122 188.38 122 203 C116.72 203.66 111.44 204.32 106 205 C99.13569821 207.48107294 93.79541961 209.90042717 90.015625 216.42578125 C89.41364885 217.71516684 88.82529536 219.01099098 88.25 220.3125 C87.94707031 220.95123047 87.64414062 221.58996094 87.33203125 222.24804688 C84.39442606 228.69119426 83.87676238 234.98024696 83.87402344 242.04248047 C83.8721553 242.70869919 83.87028717 243.37491791 83.86836243 244.06132507 C83.86438458 245.49734998 83.86228602 246.93338111 83.86190033 248.36941147 C83.85843806 251.45114972 83.83700794 254.5326857 83.81666946 257.61435127 C83.77896009 263.33212071 83.74736605 269.04966958 83.74951172 274.76757812 C83.75030935 278.76361303 83.72649577 282.75889636 83.6876297 286.75473404 C83.67732547 288.25899988 83.6755276 289.76335419 83.68328094 291.26763535 C83.77559832 311.18094267 77.96865459 328.26947289 64.12109375 343.0078125 C54.44947756 352.09165091 42.79267798 357.05915449 30 360 C29.1853125 360.20625 28.370625 360.4125 27.53125 360.625 C18.11151474 362.7182745 10.15624622 362 0 362 C0 347.81 0 333.62 0 319 C4.29 318.34 8.58 317.68 13 317 C19.30412003 314.60603037 26.85682757 311.59328278 31 306 C32.63736226 301.13403577 33.25344469 296.8920181 33.27124023 291.77050781 C33.27646698 291.08489777 33.28169373 290.39928772 33.28707886 289.69290161 C33.2972552 288.21595778 33.30308805 286.73897874 33.30496025 285.26200104 C33.30865484 282.91430826 33.32546644 280.56702641 33.34571838 278.21942139 C33.40082432 271.54870293 33.43170806 264.87792468 33.45629883 258.20703125 C33.47228937 254.11393406 33.50262705 250.02112909 33.54106331 245.92818451 C33.55261299 244.37988161 33.55864277 242.83152621 33.55874443 241.28318024 C33.56034018 223.44349703 37.7858866 207.51804591 50.4609375 194.3203125 C55.02744304 190.14722898 59.95715686 186.56866902 65 183 C66.33678371 182.00461711 67.67160514 181.00655098 69 180 C68.31035156 179.6596875 67.62070312 179.319375 66.91015625 178.96875 C51.71856639 171.13330722 41.30207343 159.39943642 36 143 C33.87194473 135.46189573 33.71821617 128.17341405 33.72560501 120.39036751 C33.72658223 118.11419158 33.71348953 115.83847264 33.69662476 113.56236267 C33.65070716 107.09735569 33.62575997 100.63240119 33.61914062 94.16723633 C33.61409612 90.19496307 33.58970676 86.22317457 33.55381393 82.25106621 C33.54409137 80.74938316 33.54164227 79.24763283 33.54698563 77.74592781 C33.71820517 63.8596459 33.71820517 63.8596459 27.15151978 52.10438538 C19.27374899 45.49944304 9.97648579 44.66274763 0 43 C0 28.81 0 14.62 0 0 Z " fill="#1985F2" transform="translate(464,99)"/>
<path d="M0 0 C14.31432136 11.71401254 25.35459646 26.88815132 27.4375 45.75 C28.96799124 65.3184237 22.0055672 82.18074561 9.6015625 96.93359375 C-1.1525314 108.57251817 -17.31211131 115.87208519 -33.09765625 116.91796875 C-53.59703864 117.07638747 -70.43551855 110.44009933 -85.375 96.5 C-97.51848445 83.6868381 -104.21065175 66.62605667 -103.8046875 49.01171875 C-102.55355983 32.16185411 -96.67697517 18.55490595 -84.5625 6.75 C-83.56669922 5.70585937 -83.56669922 5.70585937 -82.55078125 4.640625 C-60.50122925 -17.03093468 -24.39156664 -18.20956613 0 0 Z " fill="#384047" transform="translate(738.5625,231.25)"/>
<path d="M0 0 C4.95852608 3.73716281 8.73234521 9.28365379 9.85546875 15.3984375 C9.93557078 21.52052103 8.59820472 27.44376798 4.85546875 32.3984375 C2.71875 33.62109375 2.71875 33.62109375 0.85546875 34.3984375 C0.85546875 35.0584375 0.85546875 35.7184375 0.85546875 36.3984375 C-5.4208275 39.67302685 -11.42205525 40.80264275 -18.3515625 38.7421875 C-24.39199306 36.06268484 -28.2508271 31.66938103 -31.51953125 26.0234375 C-33.11634048 19.31683874 -32.80003263 12.37354275 -29.14453125 6.3984375 C-21.39178893 -2.295587 -10.6374661 -5.98755577 0 0 Z " fill="#FBFBFB" transform="translate(712.14453125,264.6015625)"/>
<path d="M0 0 C0.495 1.485 0.495 1.485 1 3 C0.19175781 3.73605469 -0.61648438 4.47210938 -1.44921875 5.23046875 C-2.52870221 6.21608409 -3.60812612 7.20176465 -4.6875 8.1875 C-5.21794922 8.67025391 -5.74839844 9.15300781 -6.29492188 9.65039062 C-6.82021484 10.13056641 -7.34550781 10.61074219 -7.88671875 11.10546875 C-8.60154419 11.75745239 -8.60154419 11.75745239 -9.33081055 12.42260742 C-11.60102463 14.56797135 -13.79369781 16.78933009 -16 19 C-17.41514034 20.41539554 -18.83042348 21.83064831 -20.24580383 23.24580383 C-21.06043594 24.06043594 -21.87506805 24.87506805 -22.71438599 25.71438599 C-52.47625732 55.47625732 -82.23812866 85.23812866 -112 115 C-112 112 -112 112 -110.25085449 109.88171101 C-109.42492798 109.05854987 -108.59900146 108.23538874 -107.74804688 107.38728333 C-107.29068901 106.92736219 -106.83333115 106.46744105 -106.36211395 105.9935829 C-104.82137577 104.44788694 -103.27012815 102.91318508 -101.71875 101.37817383 C-100.61467164 100.27494131 -99.51125271 99.17104852 -98.40844727 98.06654358 C-95.40696051 95.06419377 -92.39629358 92.07120283 -89.38394165 89.07975984 C-86.2395531 85.95408642 -83.1036212 82.81995255 -79.96679688 79.68669128 C-74.02290146 73.75213153 -68.07139796 67.8252624 -62.11714935 61.90109223 C-55.33992023 55.1573598 -48.57117681 48.4051378 -41.80314636 41.65217555 C-27.87821125 27.75862391 -13.94261003 13.87581274 0 0 Z " fill="#1B232B" transform="translate(768,383)"/>
<path d="M0 0 C3.3 0 6.6 0 10 0 C10 0.33 10 0.66 10 1 C7.36 1 4.72 1 2 1 C2 14.2 2 27.4 2 41 C4.97 41.33 7.94 41.66 11 42 C11 42.33 11 42.66 11 43 C7.37 43 3.74 43 0 43 C0 28.81 0 14.62 0 0 Z " fill="#0677F1" transform="translate(143,259)"/>
<path d="M0 0 C2.93230193 1.32120828 4.98664899 2.74638197 7.234375 5.0390625 C8.09482422 5.90917969 8.09482422 5.90917969 8.97265625 6.796875 C9.55917969 7.40015625 10.14570312 8.0034375 10.75 8.625 C11.35199219 9.23601562 11.95398438 9.84703125 12.57421875 10.4765625 C14.05405305 11.97988624 15.52764676 13.48934856 17 15 C16.34 15.66 15.68 16.32 15 17 C12.49195282 14.54976242 9.9949924 12.08852402 7.5 9.625 C6.78457031 8.92632812 6.06914063 8.22765625 5.33203125 7.5078125 C4.65527344 6.8375 3.97851562 6.1671875 3.28125 5.4765625 C2.65283203 4.85861816 2.02441406 4.24067383 1.37695312 3.60400391 C0 2 0 2 0 0 Z " fill="#575C62" transform="translate(780,126)"/>
<path d="M0 0 C3.16854747 0.57691478 4.78226459 1.41646887 7.015625 3.72265625 C7.54414062 4.26083984 8.07265625 4.79902344 8.6171875 5.35351562 C9.15601563 5.91748047 9.69484375 6.48144531 10.25 7.0625 C10.80429687 7.63033203 11.35859375 8.19816406 11.9296875 8.78320312 C13.29334214 10.18212469 14.64760417 11.59019114 16 13 C15.34 13.66 14.68 14.32 14 15 C12.66070495 13.71451591 11.32871357 12.42141845 10 11.125 C9.2575 10.40570313 8.515 9.68640625 7.75 8.9453125 C6 7 6 7 6 5 C5.38125 4.731875 4.7625 4.46375 4.125 4.1875 C2 3 2 3 0 0 Z " fill="#52585E" transform="translate(685,33)"/>
<path d="M0 0 C0 3 0 3 -2.3125 5.5625 C-6.53010012 8.88423756 -11.71003664 9.86415502 -17 10 C-19.3359375 9.03515625 -19.3359375 9.03515625 -21 8 C-20.35933594 7.95101563 -19.71867188 7.90203125 -19.05859375 7.8515625 C-13.78803915 7.3959855 -9.03013712 6.6402621 -4 5 C-4 4.34 -4 3.68 -4 3 C-2 1.375 -2 1.375 0 0 Z " fill="#1E262E" transform="translate(717,296)"/>
<path d="M0 0 C-0.33 0.99 -0.66 1.98 -1 3 C-7.6 2.67 -14.2 2.34 -21 2 C-21 1.67 -21 1.34 -21 1 C-14.03220597 -0.32719886 -7.07011089 -0.08825381 0 0 Z " fill="#0E7AF1" transform="translate(266,99)"/>
<path d="M0 0 C4.2742558 1.5830577 6.26531794 4.50568404 9 8 C6 8 6 8 4.39453125 6.7578125 C3.87246094 6.21898438 3.35039063 5.68015625 2.8125 5.125 C2.28269531 4.59132813 1.75289062 4.05765625 1.20703125 3.5078125 C0 2 0 2 0 0 Z " fill="#60656C" transform="translate(764,110)"/>
<path d="M0 0 C3.36720387 1.39332574 4.9859524 2.9789286 7 6 C4 6 4 6 1.8125 4.125 C0 2 0 2 0 0 Z " fill="#50555A" transform="translate(790,136)"/>
</svg>
